<?xml version="1.0" encoding="UTF-8"?><svg id="a" xmlns="http://www.w3.org/2000/svg" xmlns:xlink="http://www.w3.org/1999/xlink" viewBox="0 0 1151 530"><defs><style>.d{clip-path:url(#b);}.e{clip-path:url(#c);}.f{fill:none;}.g{fill:#b3b3b3;}</style><clipPath id="b"><rect class="f" x="709" y="35" width="442" height="442"/></clipPath><clipPath id="c"><rect class="f" x="709" y="35" width="442" height="442"/></clipPath></defs><g class="d"><g class="e"><path class="g" d="M1036.08,202.96h-17.68c-18.92,0-26.52,4.42-26.52,17.68v26.52h44.2l-8.84,44.2h-35.36v132.6h-44.2v-132.6h-35.36v-44.2h35.36v-26.52c0-35.36,17.68-61.88,53.04-61.88,25.64,0,35.36,8.84,35.36,8.84v35.36Zm35.36-132.6h-282.88c-24.4,0-44.2,19.8-44.2,44.2V397.44c0,24.4,19.8,44.2,44.2,44.2h282.88c24.4,0,44.2-19.8,44.2-44.2V114.56c0-24.4-19.8-44.2-44.2-44.2Z"/></g></g></svg>