<?xml version="1.0" encoding="UTF-8"?><svg id="a" xmlns="http://www.w3.org/2000/svg" xmlns:xlink="http://www.w3.org/1999/xlink" viewBox="0 0 1798 789"><defs><style>.f{clip-path:url(#b);}.g{clip-path:url(#c);}.h{clip-path:url(#e);}.i{clip-path:url(#d);}.j{fill:none;}.k{fill:#b3b3b3;}</style><clipPath id="b"><rect class="j" x="706" y="303" width="442" height="442"/></clipPath><clipPath id="c"><rect class="j" x="706" y="303" width="442" height="442"/></clipPath><clipPath id="d"><rect class="j" x="706" y="303" width="442" height="442"/></clipPath><clipPath id="e"><rect class="j" x="706" y="303" width="442" height="442"/></clipPath></defs><g class="f"><g/></g><g class="g"><g class="i"><path class="k" d="M927,444.44c-43.85,0-79.56,35.71-79.56,79.56s35.71,79.56,79.56,79.56,79.56-35.71,79.56-79.56-35.71-79.56-79.56-79.56Zm0-17.68c53.66,0,97.24,43.58,97.24,97.24s-43.58,97.24-97.24,97.24-97.24-43.58-97.24-97.24,43.58-97.24,97.24-97.24Zm106.08-26.52c9.72,0,17.68,7.96,17.68,17.68s-7.96,17.68-17.68,17.68-17.68-7.96-17.68-17.68,7.96-17.68,17.68-17.68Zm-185.64-70.72c-63.38,0-114.92,51.54-114.92,114.92v159.12c0,63.38,51.54,114.92,114.92,114.92h159.12c63.38,0,114.92-51.54,114.92-114.92v-159.12c0-63.38-51.54-114.92-114.92-114.92h-159.12Z"/></g></g><g class="h"><g/></g></svg>