<?xml version="1.0" encoding="UTF-8"?><svg id="a" xmlns="http://www.w3.org/2000/svg" xmlns:xlink="http://www.w3.org/1999/xlink" viewBox="0 0 530 530"><defs><style>.d{clip-path:url(#b);}.e{clip-path:url(#c);}.f{fill:none;}.g{fill:#b3b3b3;}</style><clipPath id="b"><rect class="f" width="530" height="530"/></clipPath><clipPath id="c"><rect class="f" width="530" height="530"/></clipPath></defs><g class="d"><g class="e"><path class="g" d="M201.4,339.2V190.8l129.31,74.2-129.31,74.2ZM475.92,153.7c-4.22-23.31-24.35-40.29-47.7-45.59-34.95-7.41-99.62-12.71-169.6-12.71s-135.65,5.3-170.64,12.71c-23.31,5.3-43.48,21.2-47.7,45.59-4.26,26.5-8.49,63.6-8.49,111.3s4.22,84.8,9.52,111.3c4.26,23.31,24.39,40.29,47.7,45.59,37.1,7.41,100.7,12.71,170.68,12.71s133.58-5.3,170.68-12.71c23.31-5.3,43.44-21.2,47.7-45.59,4.22-26.5,9.52-64.68,10.6-111.3-2.15-47.7-7.45-84.8-12.75-111.3Z"/></g></g></svg>